<?xml version="1.0" encoding="UTF-8"?>
<svg version="1.1" xmlns="http://www.w3.org/2000/svg" width="2000" height="2000" style="background: transparent;">

<path d="M0 0 C1.34 0.4 2.68 0.8 4.02 1.2 C39.36 11.93 73.21 25.5 106.18 42.09 C107.87 42.94 109.57 43.78 111.27 44.62 C139.66 58.77 166.37 76.02 191 96 C191.97 96.78 192.95 97.56 193.95 98.36 C199.25 102.64 204.39 107.07 209.42 111.66 C210.84 112.95 212.27 114.24 213.73 115.49 C219.37 120.34 224.68 125.49 229.94 130.75 C231.27 132.08 231.27 132.08 232.63 133.44 C238.5 139.38 243.89 145.4 249 152 C250.6 153.88 252.21 155.75 253.81 157.62 C281.86 191.32 301.44 231.81 311.19 274.44 C311.44 275.52 311.69 276.6 311.95 277.72 C315.44 293.56 316.33 308.99 316.26 325.17 C316.25 328.19 316.26 331.22 316.27 334.25 C316.28 344.69 315.96 354.72 314 365 C313.84 365.88 313.68 366.76 313.51 367.67 C313.06 370.02 312.57 372.35 312.06 374.69 C311.8 375.91 311.8 375.91 311.53 377.16 C310.21 383.17 308.81 389.12 307 395 C306.79 395.69 306.58 396.38 306.37 397.1 C295.72 431.89 278.52 463.47 256 492 C255.29 492.9 254.57 493.81 253.84 494.74 C248.66 501.19 243.16 507.32 237.52 513.37 C235.9 515.11 234.29 516.87 232.69 518.62 C222.7 529.55 222.7 529.55 217.07 534.25 C214.94 536.05 212.91 537.93 210.89 539.84 C204.58 545.73 197.99 551.13 191.13 556.36 C189.49 557.63 187.85 558.9 186.22 560.19 C177.78 566.8 169.05 572.88 160.12 578.81 C159.41 579.29 158.69 579.77 157.94 580.26 C145.61 588.45 133.07 596.04 120 603 C118.61 603.75 118.61 603.75 117.19 604.52 C39.31 646.52 -49 671.01 -137 679 C-138.36 679.13 -139.72 679.27 -141.07 679.41 C-187.64 684.01 -235.86 684.21 -282.41 679.36 C-285.53 679.05 -288.65 678.79 -291.78 678.57 C-323.54 676.28 -355.74 670.84 -386.62 663.09 C-387.76 662.81 -388.9 662.52 -390.08 662.23 C-391.08 661.97 -392.08 661.71 -393.11 661.44 C-398.45 660.63 -402.41 661.94 -407.06 664.52 C-408.01 665.04 -408.96 665.56 -409.94 666.1 C-410.95 666.66 -411.96 667.23 -413 667.81 C-414.07 668.4 -415.14 668.99 -416.25 669.6 C-420.38 671.87 -424.51 674.17 -428.62 676.47 C-501.77 717.32 -580.83 751.7 -661.84 773.41 C-663.98 773.99 -666.11 774.6 -668.24 775.21 C-679.04 778.26 -690 780.53 -701 782.75 C-701.76 782.9 -702.52 783.06 -703.3 783.22 C-713.98 785.39 -724.51 787.11 -735.44 787.19 C-736.89 787.21 -736.89 787.21 -738.37 787.23 C-741.07 786.99 -742.69 786.38 -745 785 C-745.42 782.14 -745.53 779.92 -744.05 777.36 C-739.93 772.31 -734.78 768.38 -729.7 764.35 C-726.42 761.74 -723.18 759.08 -719.94 756.44 C-715.6 752.91 -711.26 749.4 -706.88 745.94 C-701.06 741.3 -695.45 736.43 -689.82 731.57 C-688.03 730.02 -686.22 728.48 -684.41 726.95 C-677.36 720.95 -670.45 714.82 -663.66 708.52 C-662.45 707.41 -661.22 706.32 -659.99 705.23 C-652.34 698.49 -645.15 691.31 -637.96 684.09 C-635.81 681.93 -633.66 679.79 -631.5 677.64 C-630.11 676.25 -628.72 674.86 -627.33 673.46 C-626.38 672.52 -626.38 672.52 -625.42 671.55 C-621.08 667.2 -617.01 662.66 -613 658 C-612.05 656.92 -611.1 655.83 -610.15 654.75 C-602.35 645.81 -595.09 636.51 -588 627 C-587.55 626.4 -587.1 625.8 -586.63 625.19 C-581.22 618 -576.39 610.56 -571.81 602.81 C-571.32 601.99 -570.82 601.16 -570.31 600.31 C-569.87 599.53 -569.42 598.76 -568.96 597.96 C-568.55 597.27 -568.15 596.57 -567.74 595.86 C-566.7 593.83 -566.7 593.83 -568 591 C-570.47 589.42 -572.93 587.98 -575.5 586.56 C-584.77 581.28 -593.4 575.3 -602 569 C-602.68 568.5 -603.37 568 -604.08 567.49 C-613.25 560.8 -622.03 553.77 -630.56 546.27 C-631.77 545.2 -633 544.14 -634.23 543.08 C-648.03 531.15 -661.74 518.77 -673.07 504.43 C-674.75 502.31 -676.49 500.31 -678.31 498.31 C-702.32 471.04 -720.42 437.28 -732 403 C-732.38 401.94 -732.75 400.87 -733.14 399.78 C-741.31 375.25 -744.23 349.04 -744.31 323.31 C-744.32 322.5 -744.32 321.69 -744.32 320.86 C-744.33 307.62 -743.31 294.91 -740.6 281.93 C-740.16 279.79 -739.75 277.64 -739.35 275.48 C-737.69 266.6 -735.39 258.12 -732.5 249.56 C-732.29 248.92 -732.07 248.28 -731.85 247.62 C-719.74 211.74 -700.27 179.91 -676 151 C-675.55 150.46 -675.1 149.92 -674.64 149.37 C-667.85 141.21 -660.69 133.51 -653.19 126 C-652.01 124.82 -652.01 124.82 -650.8 123.61 C-646.02 118.88 -641.11 114.37 -636 110 C-634.99 109.12 -633.98 108.24 -632.97 107.37 C-581.16 63 -520.03 31.61 -456 9 C-454.84 8.59 -453.69 8.18 -452.49 7.76 C-439.14 3.06 -425.68 -0.84 -411.94 -4.25 C-408.58 -5.11 -405.23 -6.01 -401.88 -6.92 C-379.88 -12.84 -357.55 -17.78 -335 -21 C-333.98 -21.15 -333.98 -21.15 -332.95 -21.3 C-294.24 -26.86 -294.24 -26.86 -276 -28 C-275.31 -28.04 -274.63 -28.09 -273.92 -28.13 C-181.67 -33.81 -88.7 -27.19 0 0 Z " fill="#000000" transform="translate(1042,572)"/>
<path d="M0 0 C13.36 0.2 26 2.53 39.04 5.36 C41.7 5.94 44.37 6.49 47.04 7.04 C56 8.92 64.72 11.26 73.41 14.15 C76.52 15.17 79.64 16.16 82.76 17.16 C131.75 32.94 176.86 56.1 215 91 C216.07 91.95 217.13 92.9 218.2 93.85 C224.3 99.31 229.84 104.84 234.9 111.32 C236.27 113.07 237.68 114.78 239.13 116.46 C249.84 128.91 258.26 143.31 265.15 158.17 C265.95 159.89 266.78 161.59 267.61 163.3 C281.3 192.8 284.42 229.43 277 261 C276.81 261.81 276.62 262.62 276.43 263.46 C271.14 285.45 261.88 305.45 249 324 C248.6 324.58 248.2 325.16 247.79 325.75 C245.31 329.27 242.7 332.65 240 336 C239.58 336.52 239.16 337.05 238.72 337.58 C226.7 352.36 213.07 367.4 197.07 377.93 C192.05 381.22 192.05 381.22 189.39 386.35 C189.52 389.44 190.13 392.03 191 395 C191.18 395.63 191.36 396.25 191.55 396.9 C199.41 423.04 215.18 446.35 235 465 C237.82 467.79 240.61 470.62 243.38 473.45 C249.82 480 256.24 486.27 263.46 491.96 C266.06 494.04 268.49 496.24 270.94 498.5 C274.51 501.77 278.21 504.7 282.12 507.56 C296.08 517.92 296.08 517.92 297 524 C297 524.99 297 525.98 297 527 C282.21 534.39 253.54 521.85 239.13 517.07 C199.55 503.55 161.45 485.36 125.31 464.34 C123.29 463.17 121.26 462.02 119.22 460.88 C110.22 455.83 101.45 450.4 92.69 444.95 C91.87 444.45 91.06 443.94 90.22 443.42 C88.31 442.2 86.5 440.91 84.68 439.57 C82.16 437.8 82.16 437.8 79.54 437.94 C78.77 438.15 77.99 438.35 77.19 438.56 C76.42 438.75 75.65 438.94 74.86 439.13 C73.29 439.61 71.73 440.1 70.18 440.64 C63.05 443.14 55.75 444.8 48.38 446.44 C47.69 446.59 47.01 446.74 46.3 446.9 C10.91 454.79 -24.2 458.19 -60.43 458.19 C-64.33 458.19 -68.23 458.21 -72.13 458.22 C-93.72 458.27 -115.24 457.31 -136.62 454.19 C-137.82 454.02 -139.02 453.84 -140.25 453.67 C-186.04 446.9 -232.17 433.82 -273.18 411.97 C-275.13 410.93 -277.1 409.93 -279.07 408.93 C-294.57 401.01 -309.37 391.84 -323 381 C-323.6 380.52 -324.21 380.05 -324.83 379.56 C-332.44 373.56 -339.86 367.38 -347 360.81 C-347.61 360.26 -348.21 359.71 -348.84 359.14 C-350.27 357.8 -351.64 356.41 -353 355 C-353 354.34 -353 353.68 -353 353 C-352.04 352.68 -351.08 352.37 -350.09 352.04 C-286 330.89 -222.93 305.81 -168.09 265.53 C-165.8 263.86 -163.5 262.2 -161.2 260.54 C-152.84 254.48 -144.7 248.28 -136.91 241.51 C-134.15 239.13 -131.34 236.84 -128.5 234.56 C-119.04 226.83 -110.28 218.36 -101.62 209.75 C-100.97 209.1 -100.32 208.45 -99.64 207.78 C-95.23 203.35 -91.08 198.74 -87 194 C-86.04 192.91 -85.08 191.81 -84.11 190.72 C-65.82 169.79 -49.82 146.67 -37 122 C-36.66 121.35 -36.31 120.69 -35.96 120.02 C-22.51 94.43 -12.56 67.14 -6 39 C-5.72 37.79 -5.43 36.59 -5.14 35.35 C-2.62 23.69 -1.37 11.83 0 0 Z " fill="#000000" transform="translate(1413,924)"/>
<path d="M0 0 C7.83 4.2 10.01 10.53 13.03 18.46 C15.01 23.64 16.96 28.41 20.34 32.87 C32.34 48.91 37 70.63 41.79 89.7 C44.8 101.61 48.54 112.96 53.41 124.24 C53.87 125.34 54.34 126.44 54.81 127.57 C57.64 134.19 60.66 140.66 63.97 147.05 C64.63 147.05 65.29 147.05 65.97 147.05 C66.35 146.1 66.72 145.14 67.11 144.16 C68.55 140.5 70 136.85 71.46 133.2 C72.07 131.64 72.69 130.08 73.31 128.52 C80.74 109.67 89.13 91.34 98.18 73.21 C99.54 70.47 100.89 67.72 102.24 64.97 C107.66 54.03 113.39 44.47 121.28 35.12 C124.44 31 125.34 26.62 126.33 21.59 C126.97 19.05 126.97 19.05 128.97 17.05 C136.35 16.16 144.18 17.38 151.53 18.18 C152.6 18.27 153.67 18.37 154.78 18.46 C162.33 19.29 167.01 21.43 172.97 26.05 C174.23 26.86 175.5 27.65 176.78 28.43 C180.69 31.28 182.16 34.67 183.97 39.05 C184.39 39.95 184.81 40.85 185.25 41.78 C192.42 57.59 192.15 75.47 192.1 92.56 C192.09 94.71 192.1 96.86 192.11 99.01 C192.1 100.39 192.1 101.77 192.1 103.16 C192.1 104.39 192.1 105.62 192.1 106.89 C191.99 109.52 191.65 111.54 190.97 114.05 C190.88 115.54 190.84 117.03 190.83 118.51 C190.81 119.38 190.79 120.25 190.77 121.14 C190.74 122.91 190.72 124.69 190.71 126.47 C190.56 132 189.58 136.47 187.66 141.66 C184.07 151.5 182.98 161.75 181.66 172.08 C181.22 175.46 180.76 178.83 180.3 182.19 C178.45 196 177.48 209.67 177.06 223.58 C176.88 228.63 176.43 233.65 175.97 238.68 C175.27 246.74 174.77 254.78 174.47 262.87 C174.22 269.35 173.75 275.58 172.5 281.96 C171.94 285.25 171.62 288.51 171.32 291.83 C169.63 310.32 165.68 332.34 152.06 345.96 C144.81 351.83 136.99 353.73 127.77 353.55 C122.21 352.82 117.09 351.08 111.8 349.27 C106.76 347.55 102.2 346.52 96.86 346.26 C94.03 345.95 92.15 344.81 89.97 343.05 C86.91 336.93 89.28 328.24 90.72 321.86 C91.08 320.13 91.45 318.41 91.81 316.69 C92.39 314.03 92.97 311.38 93.55 308.73 C96.56 294.97 97.81 282.76 96.2 268.7 C95.41 259.64 95.77 250.79 97.33 241.85 C98.17 236.85 98.85 231.83 99.53 226.8 C99.66 225.88 99.78 224.96 99.92 224.01 C101.28 213.95 102.18 204.04 102.57 193.9 C102.61 193.05 102.65 192.19 102.69 191.31 C102.72 190.54 102.75 189.77 102.78 188.97 C102.97 187.05 102.97 187.05 103.97 185.05 C104.22 182.76 104.41 180.46 104.58 178.15 C104.69 176.7 104.81 175.25 104.92 173.8 C104.98 173.04 105.04 172.27 105.1 171.49 C106.29 156.14 108.09 141.03 110.53 125.82 C111.14 121.97 111.69 118.11 112.22 114.24 C112.37 113.16 112.52 112.08 112.67 110.97 C112.98 107.98 112.99 105.06 112.97 102.05 C112.58 103.02 112.18 103.99 111.78 104.99 C110.3 108.63 108.81 112.28 107.32 115.92 C106.68 117.49 106.04 119.06 105.4 120.62 C87.55 164.6 87.55 164.6 71.36 172.3 C68.27 173.28 66.19 173.51 62.97 173.05 C42.71 158.12 32.12 125.62 23.99 102.89 C23.34 101.09 22.67 99.29 21.99 97.5 C18.7 88.86 16.36 79.97 13.97 71.05 C13.89 72.71 13.89 72.71 13.82 74.39 C12.39 105.39 10.02 135.33 4.03 165.85 C2.25 174.94 0.61 184.04 -0.74 193.21 C-0.88 194.14 -1.02 195.08 -1.16 196.04 C-1.72 199.82 -2.27 203.61 -2.81 207.4 C-5.96 229.57 -9.77 256.06 -28.44 270.98 C-36.2 276.27 -42.69 276.78 -52.03 276.05 C-58.47 274.45 -62.39 271.52 -66.03 266.05 C-71.34 256.22 -71.37 244.97 -71.03 234.05 C-71.01 233.22 -70.99 232.38 -70.97 231.52 C-70.64 217.55 -69.49 203.85 -67.58 190.01 C-66.52 182.37 -65.51 174.72 -64.49 167.07 C-64.23 165.1 -63.96 163.13 -63.7 161.16 C-57.69 117.52 -57.69 117.52 -54.49 73.62 C-54.15 65.42 -53.21 57.33 -52.19 49.19 C-51.46 43.26 -50.89 37.36 -50.53 31.39 C-50.46 30.12 -50.38 28.86 -50.3 27.55 C-50.17 25.11 -50.05 22.66 -49.94 20.22 C-49.35 9.67 -49.35 9.67 -45.03 5.05 C-42.94 3.28 -40.76 1.74 -38.47 0.24 C-37.89 -0.15 -37.32 -0.55 -36.72 -0.95 C-25.87 -8.25 -11.25 -5.43 0 0 Z " fill="#FDFDFD" transform="translate(560.03125,697.9453125)"/>
<path d="M0 0 C6.85 3.61 10.27 7.42 12.96 14.78 C14.09 18.71 14.21 22.62 14.35 26.69 C14.39 27.61 14.43 28.54 14.47 29.5 C14.6 32.54 14.7 35.58 14.8 38.62 C14.84 39.67 14.88 40.71 14.92 41.79 C15.54 58.13 15.8 74.46 15.8 90.81 C15.81 91.8 15.81 92.79 15.81 93.8 C15.81 102.88 15.73 111.85 14.84 120.89 C14.36 127.69 14.47 134.52 14.49 141.34 C14.49 143.99 14.49 146.64 14.48 149.28 C14 168.75 14 168.75 19.62 187.06 C19.95 187.72 20.29 188.38 20.64 189.05 C23.92 194.46 28.7 197.11 34.62 199.06 C41.45 200.23 46.93 198.97 52.62 195.06 C55.41 192.77 55.41 192.77 57.62 190.06 C58.67 188.85 58.67 188.85 59.74 187.62 C65.05 179.28 65.16 166.74 66.3 157.12 C70.46 124.48 76.66 92.11 82.95 59.83 C83.14 58.89 83.32 57.95 83.51 56.98 C83.69 56.05 83.87 55.13 84.06 54.17 C85.23 48.17 86.32 42.16 87.38 36.14 C87.65 34.63 87.91 33.12 88.18 31.61 C88.67 28.87 89.14 26.13 89.59 23.39 C89.91 21.61 89.91 21.61 90.23 19.8 C90.4 18.78 90.58 17.76 90.76 16.7 C91.78 13.55 93.06 12.13 95.62 10.06 C104.5 8.13 112.94 11.56 120.37 16.25 C125.41 20.09 129.38 25.82 130.62 32.06 C130.73 33.93 130.79 35.8 130.83 37.67 C130.86 38.76 130.88 39.84 130.91 40.96 C130.97 43.22 131.01 45.49 131.05 47.75 C131.22 53.94 131.67 58.58 134.62 64.06 C137.38 69.59 135.36 77.8 134.6 83.73 C132.97 96.68 132.26 109.51 131.99 122.54 C131.97 123.83 131.97 123.83 131.94 125.14 C131.81 131.36 131.71 137.59 131.62 143.81 C131.28 165.18 130.79 186.48 129.2 207.79 C129.11 209.03 129.11 209.03 129.02 210.29 C125.11 262.82 125.11 262.82 106.62 279.06 C101.38 283.16 96.17 286.41 89.55 287.62 C79.63 286.2 70.6 278.86 64.62 271.06 C58.89 261.89 56.44 253.64 56.52 242.82 C56.52 242.05 56.52 241.28 56.52 240.49 C56.53 238.05 56.54 235.62 56.55 233.18 C56.56 231.52 56.56 229.87 56.57 228.21 C56.58 224.16 56.6 220.11 56.62 216.06 C53.01 216.02 49.91 216.09 46.43 217.06 C35.51 219.61 25.56 218.08 15.87 212.5 C11.06 209.46 6.46 206.14 1.87 202.8 C-1.71 200.21 -5.35 197.8 -9.13 195.5 C-23.24 186.62 -32.23 174.8 -36.25 158.55 C-38.26 148.4 -38.9 138.65 -38.82 128.31 C-38.82 127.5 -38.82 126.7 -38.81 125.86 C-38.76 113.35 -37.98 100.99 -36.57 88.56 C-36.49 87.82 -36.41 87.09 -36.32 86.33 C-34.64 71.76 -31.36 57.64 -27.79 43.44 C-27.25 41.27 -26.71 39.1 -26.17 36.93 C-25.82 35.54 -25.47 34.15 -25.12 32.76 C-24.81 31.52 -24.5 30.28 -24.18 29 C-23.38 26.06 -23.38 26.06 -22.38 24.06 C-22.36 22.1 -22.35 20.15 -22.35 18.19 C-22.24 8.36 -22.24 8.36 -19.64 4.41 C-13.94 -0.54 -7.31 -2.89 0 0 Z " fill="#FDFDFD" transform="translate(816.3828125,794.94140625)"/>
<path d="M0 0 C14.43 11.61 23.57 32.66 26.7 50.45 C28.77 82.83 28.77 82.83 21.7 93.45 C17.37 94.4 14.79 93.15 11.2 90.88 C1.29 83.77 -2.09 75.32 -4.74 63.76 C-4.95 62.85 -5.17 61.93 -5.39 60.99 C-6.66 55.51 -7.79 50.02 -8.82 44.49 C-10.96 33.15 -13.28 21.22 -21.3 12.45 C-26.71 8.93 -32.63 6.85 -39.15 6.99 C-44.63 8.15 -48.02 12.66 -51.14 17.01 C-56.72 26.23 -55.81 32.95 -53.93 43.2 C-48.17 74.45 -48.78 107.64 -51.98 139.18 C-52.28 142.21 -52.55 145.24 -52.82 148.27 C-57.13 197.6 -57.13 197.6 -67.69 210.04 C-70.47 214.19 -72.09 218.89 -73.85 223.54 C-74.13 224.26 -74.4 224.98 -74.69 225.71 C-74.93 226.36 -75.17 227.01 -75.41 227.67 C-76.44 229.73 -77.52 231 -79.3 232.45 C-85.18 232.3 -90.88 229.54 -96.3 227.45 C-97.32 227.07 -98.35 226.7 -99.4 226.32 C-107.04 223.39 -113.41 220.01 -117.88 212.95 C-119.76 208.33 -119.71 204.38 -119.66 199.43 C-119.67 198.45 -119.67 197.46 -119.67 196.45 C-119.67 193.22 -119.64 189.99 -119.61 186.76 C-119.6 184.5 -119.59 182.24 -119.58 179.99 C-119.45 158.77 -118.54 137.62 -117.3 116.45 C-117.22 115.02 -117.14 113.6 -117.06 112.18 C-116.51 102.6 -115.91 93.02 -115.3 83.45 C-114.84 76.25 -114.39 69.06 -113.94 61.87 C-113.81 59.72 -113.67 57.57 -113.53 55.43 C-112.57 40.35 -112.57 40.35 -112.06 25.26 C-112.04 23.96 -112.01 22.65 -111.98 21.3 C-111.95 18.98 -111.93 16.67 -111.94 14.35 C-111.85 7.17 -111.85 7.17 -108.95 3.3 C-103.13 -0.78 -96.47 0.15 -89.61 0.07 C-88.36 0.03 -87.1 -0 -85.81 -0.04 C-78.33 -0.11 -73 0.33 -67.3 5.45 C-64.3 8.73 -64.3 8.73 -64.3 11.45 C-60.08 9.1 -56.02 6.61 -51.99 3.95 C-36.82 -5.72 -15.85 -10.71 0 0 Z " fill="#FDFDFD" transform="translate(1114.30078125,813.5546875)"/>
<path d="M0 0 C0 0.99 0 1.98 0 3 C-0.71 3.27 -1.42 3.53 -2.15 3.8 C-3.53 4.33 -3.53 4.33 -4.94 4.88 C-5.85 5.22 -6.77 5.57 -7.71 5.93 C-10.15 6.78 -10.15 6.78 -11 9 C-12.24 19.33 -9.32 29.71 -7.25 39.75 C-6.51 43.42 -5.77 47.09 -5.04 50.76 C-4.77 52.1 -4.77 52.1 -4.49 53.47 C-2.91 61.35 -1.49 69.26 -0.19 77.2 C0.64 82.21 1.48 87.15 3 92 C6.01 93 8.54 93.3 11.69 93.56 C13.18 93.69 13.18 93.69 14.7 93.82 C15.46 93.88 16.22 93.94 17 94 C16.67 94.99 16.34 95.98 16 97 C10.82 98 5.65 99 0.47 99.99 C-1.29 100.33 -3.05 100.67 -4.81 101.01 C-7.35 101.5 -9.88 101.98 -12.42 102.47 C-13.2 102.62 -13.99 102.77 -14.79 102.93 C-18.58 103.65 -22.12 104.19 -26 104 C-26 103.01 -26 102.02 -26 101 C-25.37 100.83 -24.75 100.66 -24.1 100.48 C-22.88 100.12 -22.88 100.12 -21.62 99.75 C-20.81 99.52 -20 99.29 -19.16 99.05 C-16.94 98.16 -16.94 98.16 -15.71 96.39 C-13.69 89.6 -15.48 82.44 -16.86 75.68 C-17.06 74.71 -17.25 73.74 -17.45 72.73 C-18.06 69.63 -18.69 66.53 -19.31 63.44 C-19.72 61.38 -20.13 59.33 -20.54 57.28 C-21.51 52.4 -22.49 47.52 -23.47 42.65 C-24.25 38.78 -25.02 34.91 -25.79 31.04 C-26.03 29.85 -26.27 28.67 -26.51 27.46 C-26.67 26.65 -26.83 25.84 -27 25 C-29.55 32.18 -31.33 39.39 -33 46.81 C-36.14 60.54 -39.51 74.21 -42.94 87.88 C-43.31 89.38 -43.31 89.38 -43.7 90.91 C-45.13 96.6 -46.56 102.3 -48 108 C-49.32 108.33 -50.64 108.66 -52 109 C-58.63 99.92 -65.19 90.8 -71.5 81.5 C-76.29 74.44 -81.22 67.5 -86.24 60.6 C-91.64 53.16 -96.83 45.6 -102 38 C-100.63 48.7 -98.69 59.23 -96.6 69.8 C-96.06 72.5 -95.54 75.19 -95.01 77.88 C-94.17 82.14 -93.33 86.41 -92.47 90.67 C-92.16 92.18 -91.86 93.69 -91.56 95.21 C-91.17 97.17 -90.77 99.13 -90.37 101.09 C-90.15 102.17 -89.93 103.25 -89.71 104.37 C-89.1 107.2 -89.1 107.2 -87 110 C-84.11 110.58 -84.11 110.58 -80.88 110.69 C-79.78 110.75 -78.68 110.82 -77.55 110.89 C-76.71 110.92 -75.87 110.96 -75 111 C-75 111.99 -75 112.98 -75 114 C-79.17 114.82 -83.33 115.63 -87.5 116.44 C-88.67 116.67 -89.85 116.9 -91.05 117.13 C-97.03 118.29 -102.95 119.35 -109 120 C-109 119.01 -109 118.02 -109 117 C-108.46 116.83 -107.91 116.66 -107.36 116.48 C-104.16 115.4 -101.56 114.49 -99 112.25 C-96.63 106.91 -98.24 100.75 -99.36 95.21 C-99.57 94.1 -99.57 94.1 -99.79 92.98 C-100.25 90.59 -100.72 88.2 -101.19 85.81 C-101.84 82.48 -102.48 79.15 -103.12 75.82 C-103.29 74.99 -103.45 74.16 -103.61 73.3 C-104.62 68.08 -105.56 62.86 -106.44 57.62 C-106.65 56.35 -106.86 55.09 -107.09 53.79 C-107.48 51.46 -107.86 49.12 -108.23 46.78 C-109.29 40.49 -110.67 35.48 -114 30 C-117.04 27.98 -118.19 27.68 -121.69 27.38 C-122.5 27.3 -123.3 27.23 -124.14 27.15 C-124.75 27.1 -125.37 27.05 -126 27 C-126.33 26.01 -126.66 25.02 -127 24 C-122.1 22.74 -117.19 21.56 -112.24 20.5 C-110.26 20.06 -108.29 19.56 -106.33 19.05 C-102.84 18.39 -100.46 18.16 -97 19 C-93.32 22.12 -90.86 25.82 -88.33 29.88 C-86.4 32.95 -84.34 35.92 -82.28 38.9 C-81.17 40.52 -80.06 42.14 -78.96 43.77 C-75.02 49.58 -70.91 55.23 -66.65 60.81 C-62.87 65.79 -59.22 70.87 -55.63 75.99 C-55.08 76.77 -54.54 77.54 -53.98 78.34 C-52.65 80.23 -51.32 82.11 -50 84 C-47.69 74.88 -45.38 65.76 -43.06 56.64 C-41.99 52.41 -40.92 48.17 -39.84 43.94 C-38.8 39.85 -37.77 35.76 -36.73 31.66 C-36.33 30.11 -35.94 28.55 -35.54 26.99 C-34.99 24.81 -34.43 22.62 -33.88 20.43 C-33.56 19.18 -33.25 17.94 -32.92 16.66 C-31.94 12.77 -30.97 8.89 -30 5 C-25.56 4.16 -21.13 3.33 -16.69 2.5 C-15.42 2.26 -14.16 2.02 -12.86 1.78 C-11.65 1.55 -10.44 1.33 -9.2 1.09 C-8.08 0.88 -6.97 0.67 -5.82 0.46 C-3 0 -3 0 0 0 Z " fill="#F7F7F7" transform="translate(1444,1134)"/>
<path d="M0 0 C0.12 0.64 0.24 1.29 0.37 1.95 C1.62 8.65 2.89 15.35 4.16 22.05 C4.64 24.55 5.11 27.05 5.58 29.56 C6.25 33.15 6.93 36.74 7.62 40.33 C7.83 41.45 8.03 42.58 8.25 43.73 C8.45 44.77 8.65 45.81 8.85 46.89 C9.03 47.8 9.2 48.72 9.38 49.67 C9.93 52.25 9.93 52.25 12 55 C14.21 55.36 14.21 55.36 16.62 55.19 C17.44 55.16 18.26 55.13 19.1 55.11 C20.04 55.05 20.04 55.05 21 55 C21 55.99 21 56.98 21 58 C19.4 59.35 19.4 59.35 17.17 60.7 C16.37 61.19 15.57 61.67 14.75 62.17 C13.9 62.67 13.06 63.17 12.19 63.69 C11.35 64.2 10.52 64.71 9.66 65.24 C3.41 69 3.41 69 0 69 C-0.99 65.04 -1.98 61.08 -3 57 C-3.48 57.74 -3.97 58.47 -4.47 59.23 C-12.42 70.81 -12.42 70.81 -19 73 C-24.15 73.95 -28.74 74.23 -33.44 71.67 C-39.99 66.33 -42.07 59.83 -43.5 51.7 C-43.62 51.03 -43.74 50.35 -43.87 49.66 C-44.25 47.52 -44.63 45.39 -45 43.25 C-47.14 29.4 -47.14 29.4 -51 16 C-53.3 14.85 -55.08 14.69 -57.62 14.44 C-58.44 14.35 -59.26 14.27 -60.1 14.18 C-60.73 14.12 -61.35 14.06 -62 14 C-62 13.01 -62 12.02 -62 11 C-59.29 10.49 -56.58 9.99 -53.88 9.5 C-53.11 9.36 -52.35 9.21 -51.57 9.07 C-47.32 8.3 -43.34 7.83 -39 8 C-37.38 13.3 -36.29 18.54 -35.38 24 C-35.08 25.73 -34.78 27.46 -34.48 29.19 C-34.02 31.88 -33.56 34.57 -33.11 37.27 C-32.66 39.89 -32.21 42.51 -31.75 45.13 C-31.56 46.33 -31.56 46.33 -31.36 47.55 C-30.55 52.15 -29.48 55.97 -27 60 C-23.27 62.49 -20.32 62.51 -16 62 C-11.6 60.51 -7.89 58.08 -5.01 54.42 C-2.6 48.66 -4.83 41.91 -6 36 C-6.4 33.83 -6.8 31.67 -7.2 29.5 C-8.04 25.06 -8.89 20.63 -9.78 16.2 C-9.97 15.27 -10.15 14.34 -10.35 13.38 C-10.93 10.76 -10.93 10.76 -13 8 C-15.43 7.42 -15.43 7.42 -18.12 7.31 C-19.04 7.25 -19.95 7.18 -20.88 7.11 C-21.58 7.08 -22.28 7.04 -23 7 C-23 6.01 -23 5.02 -23 4 C-19.92 3.33 -16.83 2.66 -13.75 2 C-12.88 1.81 -12 1.62 -11.11 1.42 C-10.26 1.24 -9.42 1.06 -8.55 0.88 C-7.77 0.71 -7 0.54 -6.2 0.37 C-4 0 -4 0 0 0 Z " fill="#F5F5F5" transform="translate(1520,1152)"/>
<path d="M0 0 C2.5 1.56 2.5 1.56 4 4 C4.43 7.49 4.67 9.85 2.88 12.94 C0.14 14.49 -1.91 14.32 -5 14 C-5.99 13.34 -6.98 12.68 -8 12 C-11.51 11.68 -11.51 11.68 -15 13 C-17.35 15.38 -18.3 17.75 -19 21 C-18.92 23.82 -18.44 26.35 -17.84 29.11 C-17.15 32.29 -16.58 35.43 -16.07 38.64 C-15.82 40.16 -15.82 40.16 -15.57 41.71 C-15.24 43.74 -14.91 45.78 -14.59 47.81 C-13.34 56.55 -13.34 56.55 -9 64 C-7.32 64.23 -5.63 64.41 -3.94 64.56 C-2.56 64.69 -2.56 64.69 -1.15 64.82 C-0.44 64.88 0.27 64.94 1 65 C1 65.99 1 66.98 1 68 C-3.52 68.86 -8.04 69.71 -12.56 70.56 C-14.1 70.85 -15.64 71.14 -17.18 71.44 C-19.39 71.86 -21.6 72.27 -23.8 72.69 C-24.49 72.82 -25.18 72.95 -25.89 73.09 C-30.77 74 -30.77 74 -33 74 C-33 73.01 -33 72.02 -33 71 C-32.03 70.55 -31.06 70.09 -30.06 69.62 C-26.93 68.34 -26.93 68.34 -26 66 C-25.24 57.21 -26.66 48.76 -28.4 40.18 C-28.82 38.11 -29.21 36.04 -29.6 33.96 C-29.87 32.62 -30.13 31.28 -30.39 29.95 C-30.63 28.75 -30.87 27.56 -31.11 26.34 C-32.02 22.93 -33.31 20.09 -35 17 C-38.96 17.49 -38.96 17.49 -43 18 C-43.33 17.01 -43.66 16.02 -44 15 C-41.26 13.15 -38.51 11.32 -35.75 9.5 C-34.97 8.98 -34.2 8.45 -33.39 7.91 C-32.64 7.41 -31.89 6.92 -31.11 6.41 C-30.42 5.95 -29.73 5.48 -29.01 5.01 C-27 4 -27 4 -23 4 C-22.01 6.97 -21.02 9.94 -20 13 C-19.64 12.4 -19.27 11.79 -18.9 11.17 C-13.94 3.29 -9.71 -1.25 0 0 Z " fill="#F6F6F6" transform="translate(1581,1140)"/>
<path d="M0 0 C0 0.99 0 1.98 0 3 C-1.65 3.33 -3.3 3.66 -5 4 C-5 3.34 -5 2.68 -5 2 C-5.66 1.67 -6.32 1.34 -7 1 C-4.51 0.31 -2.62 0 0 0 Z " fill="#C5C5C5" transform="translate(1444,1134)"/>
<path d="M0 0 C0 0.66 0 1.32 0 2 C-1.98 2.33 -3.96 2.66 -6 3 C-6 2.01 -6 1.02 -6 0 C-2.25 -1.12 -2.25 -1.12 0 0 Z " fill="#DDDDDD" transform="translate(1341,1251)"/>
<path d="M0 0 C4.55 -0.37 4.55 -0.37 6.81 1.5 C7.2 1.99 7.6 2.49 8 3 C5.36 3 2.72 3 0 3 C0 2.01 0 1.02 0 0 Z " fill="#D9D9D9" transform="translate(1458,1163)"/>
</svg>